<svg xmlns="http://www.w3.org/2000/svg" version="1.1" xmlns:xlink="http://www.w3.org/1999/xlink" xmlns:svgjs="http://svgjs.com/svgjs" width="1440" height="820" preserveAspectRatio="none" viewBox="0 0 1440 820"><g mask="url(&quot;#SvgjsMask1001&quot;)" fill="none"><rect width="1440" height="820" x="0" y="0" fill="rgba(15, 15, 15, 1)"></rect><path d="M0,661.47C125.433,667.735,255.553,627.519,350.313,545.098C440.245,466.877,450.346,336.69,498.669,227.735C546.338,120.256,639.838,26.415,632.398,-90.925C624.811,-210.585,540.082,-309.398,459.013,-397.737C379.712,-484.151,287.054,-561.525,173.521,-590.957C61.801,-619.919,-51.049,-581.909,-164.227,-559.306C-288.758,-534.436,-426.021,-535.539,-521.755,-452.104C-622.171,-364.588,-680.031,-232.148,-691.843,-99.472C-703.368,29.987,-652.277,155.839,-585.822,267.536C-524.178,371.147,-428.57,443.917,-328.524,511.193C-226.53,579.779,-122.757,655.339,0,661.47" fill="#0c0c0c"></path><path d="M1440 1227.908C1542.151 1235.189 1640.518 1317.313 1736.284 1281.026 1833.569 1244.163 1910.146 1145.399 1928.163 1042.936 1945.624 943.634 1859.692 859.763 1827.137 764.338 1801.811 690.104 1797.146 612.3969999999999 1758.077 544.385 1711.972 464.126 1669.778 365.842 1581.7640000000001 337.195 1493.643 308.514 1406.698 377.858 1316.91 400.795 1223.024 424.779 1112.343 408.493 1041.9569999999999 475.093 970.3589999999999 542.8389999999999 965.428 652.227 948.55 749.34 931.194 849.199 900.927 954.763 942.5260000000001 1047.189 984.187 1139.755 1074.262 1205.981 1169.671 1240.6399999999999 1256.212 1272.078 1348.159 1221.362 1440 1227.908" fill="#121212"></path></g><defs><mask id="SvgjsMask1001"><rect width="1440" height="820" fill="#ffffff"></rect></mask></defs></svg>