<svg width="372" height="208" viewBox="0 0 372 208" fill="none" xmlns="http://www.w3.org/2000/svg">
<rect x="103" y="88" width="62" height="32" rx="16" fill="#E3E3E3"/>
<rect x="137" y="92" width="23" height="24" rx="11.5" fill="#5549F1"/>
<rect x="235" y="88" width="32" height="32" rx="16" fill="#5549F1"/>
<rect width="19" height="18" rx="9" transform="matrix(-1 0 0 1 261 95)" fill="#E3E3E3"/>
<rect x="185" y="88" width="32" height="32" rx="5" fill="#5549F1"/>
<path d="M198.658 106.551L195.176 102.944L194.817 102.572L194.457 102.944L192.807 104.653L192.472 105L192.807 105.348L198.299 111.035L198.658 111.408L199.018 111.035L210.343 99.3059L210.678 98.9586L210.343 98.6113L208.693 96.9027L208.334 96.5302L207.974 96.9027L198.658 106.551Z" fill="#E3E3E3" stroke="#E3E3E3"/>
</svg>
