<svg width="371" height="208" viewBox="0 0 371 208" fill="none" xmlns="http://www.w3.org/2000/svg">
<rect x="133" y="34" width="105" height="139" rx="5" fill="#E3E3E3"/>
<rect x="148.5" y="93.5" width="74" height="11" rx="3.5" fill="#F1F1F1" stroke="#BBBBBB"/>
<rect x="148.5" y="112.5" width="74" height="11" rx="3.5" fill="#F1F1F1" stroke="#B6B6B6"/>
<path d="M180.875 56.9583C180.875 59.2325 182.726 61.0833 185 61.0833C187.274 61.0833 189.125 59.2325 189.125 56.9583C189.125 54.684 187.274 52.8333 185 52.8333C182.726 52.8333 180.875 54.684 180.875 56.9583ZM192.333 70.2499H193.25V69.3333C193.25 65.7958 190.371 62.9166 186.833 62.9166H183.167C179.628 62.9166 176.75 65.7958 176.75 69.3333V70.2499H192.333Z" fill="#B6B6B6"/>
<rect x="166" y="139" width="39" height="11" rx="5.5" fill="#BBBBBB"/>
<rect x="172" y="143" width="28" height="3" rx="1.5" fill="#E3E3E3"/>
</svg>
