<svg width="372" height="208" viewBox="0 0 372 208" fill="none" xmlns="http://www.w3.org/2000/svg">
<rect x="58" y="51" width="79" height="105" rx="5" fill="#E3E3E3"/>
<rect x="235" y="51" width="79" height="105" rx="5" fill="#E3E3E3"/>
<rect x="148" y="52" width="76.0769" height="103" rx="4" fill="#F1F1F1" stroke="#5549F1" stroke-width="2"/>
<rect x="159" y="72" width="54" height="5" rx="2.5" fill="#B6B6B6"/>
<rect x="166" y="94" width="40" height="5" rx="2.5" fill="#B6B6B6"/>
<rect x="166" y="120" width="40" height="5" rx="2.5" fill="#B6B6B6"/>
<rect x="166" y="105" width="40" height="5" rx="2.5" fill="#B6B6B6"/>
<rect x="166" y="131" width="40" height="5" rx="2.5" fill="#B6B6B6"/>
<rect x="248" y="72" width="54" height="5" rx="2.5" fill="#B6B6B6"/>
<rect x="255" y="94" width="40" height="5" rx="2.5" fill="#B6B6B6"/>
<rect x="255" y="120" width="40" height="5" rx="2.5" fill="#B6B6B6"/>
<rect x="255" y="105" width="40" height="5" rx="2.5" fill="#B6B6B6"/>
<rect x="255" y="131" width="40" height="5" rx="2.5" fill="#B6B6B6"/>
<rect x="71" y="72" width="54" height="5" rx="2.5" fill="#B6B6B6"/>
<rect x="78" y="94" width="40" height="5" rx="2.5" fill="#B6B6B6"/>
<rect x="78" y="120" width="40" height="5" rx="2.5" fill="#B6B6B6"/>
<rect x="78" y="105" width="40" height="5" rx="2.5" fill="#B6B6B6"/>
<rect x="78" y="131" width="40" height="5" rx="2.5" fill="#B6B6B6"/>
</svg>
