<svg width="372" height="208" viewBox="0 0 372 208" fill="none" xmlns="http://www.w3.org/2000/svg">
<path d="M253.166 97.1496C253.15 95.9505 252.925 94.7632 252.503 93.641C252.136 92.6944 251.576 91.8347 250.858 91.1169C250.14 90.399 249.28 89.8388 248.334 89.4721C247.226 89.0562 246.055 88.8313 244.872 88.8071C243.349 88.739 242.866 88.72 239 88.72C235.133 88.72 234.638 88.72 233.126 88.8071C231.943 88.8315 230.773 89.0564 229.666 89.4721C228.719 89.8386 227.86 90.3987 227.142 91.1166C226.424 91.8344 225.864 92.6942 225.497 93.641C225.081 94.7479 224.856 95.918 224.834 97.1006C224.766 98.6253 224.745 99.1082 224.745 102.975C224.745 106.841 224.745 107.335 224.834 108.849C224.858 110.033 225.081 111.202 225.497 112.312C225.864 113.258 226.425 114.118 227.143 114.835C227.861 115.553 228.721 116.113 229.668 116.479C230.772 116.912 231.942 117.152 233.127 117.191C234.652 117.26 235.135 117.28 239.001 117.28C242.868 117.28 243.364 117.28 244.876 117.191C246.059 117.168 247.229 116.944 248.337 116.528C249.283 116.161 250.143 115.6 250.86 114.883C251.578 114.165 252.138 113.305 252.506 112.359C252.922 111.251 253.145 110.082 253.169 108.896C253.237 107.373 253.258 106.89 253.258 103.022C253.255 99.1557 253.255 98.6649 253.166 97.1496V97.1496ZM238.99 110.287C234.947 110.287 231.671 107.011 231.671 102.967C231.671 98.923 234.947 95.6471 238.99 95.6471C240.932 95.6471 242.793 96.4182 244.166 97.791C245.539 99.1637 246.31 101.025 246.31 102.967C246.31 104.908 245.539 106.77 244.166 108.143C242.793 109.515 240.932 110.287 238.99 110.287V110.287ZM246.601 97.0831C246.377 97.0833 246.155 97.0393 245.948 96.9536C245.741 96.8679 245.553 96.7422 245.394 96.5837C245.236 96.4251 245.11 96.2369 245.024 96.0297C244.938 95.8226 244.894 95.6005 244.895 95.3763C244.895 95.1523 244.939 94.9304 245.024 94.7234C245.11 94.5164 245.236 94.3284 245.394 94.17C245.553 94.0115 245.741 93.8859 245.948 93.8001C246.155 93.7144 246.377 93.6703 246.601 93.6703C246.825 93.6703 247.047 93.7144 247.254 93.8001C247.461 93.8859 247.649 94.0115 247.807 94.17C247.965 94.3284 248.091 94.5164 248.177 94.7234C248.263 94.9304 248.307 95.1523 248.307 95.3763C248.307 96.32 247.544 97.0831 246.601 97.0831Z" fill="#B6B6B6"/>
<path d="M238.99 107.722C241.616 107.722 243.745 105.593 243.745 102.967C243.745 100.341 241.616 98.212 238.99 98.212C236.364 98.212 234.235 100.341 234.235 102.967C234.235 105.593 236.364 107.722 238.99 107.722Z" fill="#B6B6B6"/>
<path d="M187.212 117.245V104.268H191.59L192.241 99.1874H187.212V95.951C187.212 94.4849 187.621 93.481 189.725 93.481H192.391V88.9511C191.094 88.8121 189.79 88.7449 188.485 88.75C184.616 88.75 181.959 91.1124 181.959 95.4491V99.1779H177.609V104.259H181.968V117.245H187.212Z" fill="#B6B6B6"/>
<path d="M143.086 96.6619C143.106 96.939 143.106 97.2145 143.106 97.49C143.106 105.921 136.689 115.637 124.961 115.637C121.348 115.637 117.992 114.59 115.167 112.772C115.68 112.831 116.174 112.851 116.708 112.851C119.578 112.858 122.367 111.899 124.626 110.127C123.295 110.102 122.005 109.663 120.935 108.871C119.866 108.078 119.071 106.971 118.661 105.704C119.056 105.763 119.451 105.802 119.866 105.802C120.438 105.802 121.013 105.723 121.546 105.586C120.102 105.294 118.803 104.511 117.871 103.37C116.938 102.229 116.43 100.8 116.432 99.3267V99.2475C117.282 99.7209 118.269 100.017 119.314 100.057C118.438 99.4748 117.72 98.6854 117.224 97.7588C116.728 96.8322 116.469 95.7972 116.47 94.7461C116.47 93.5617 116.785 92.4756 117.338 91.5287C118.94 93.5 120.939 95.1127 123.205 96.2624C125.47 97.412 127.952 98.073 130.489 98.2025C130.391 97.7275 130.331 97.2351 130.331 96.7411C130.33 95.9034 130.495 95.0739 130.815 94.3C131.136 93.526 131.605 92.8228 132.198 92.2305C132.79 91.6381 133.493 91.1684 134.267 90.848C135.041 90.5277 135.871 90.363 136.708 90.3634C138.545 90.3634 140.203 91.1329 141.368 92.3774C142.796 92.1013 144.165 91.5801 145.415 90.8368C144.939 92.3106 143.942 93.5603 142.611 94.3518C143.877 94.2074 145.115 93.8744 146.283 93.3638C145.41 94.6354 144.33 95.7504 143.086 96.6619V96.6619Z" fill="#5549F1"/>
</svg>
