<?xml version="1.0" encoding="utf-8"?>
<!-- Generator: Adobe Illustrator 24.0.1, SVG Export Plug-In . SVG Version: 6.00 Build 0)  -->
<svg version="1.1" id="Livello_1" xmlns="http://www.w3.org/2000/svg" xmlns:xlink="http://www.w3.org/1999/xlink" x="0px" y="0px"
	 viewBox="0 0 1440 818.9" style="enable-background:new 0 0 1440 818.9;" xml:space="preserve">
<style type="text/css">
	.st0{opacity:0.1;fill:#AAAAAA;enable-background:new    ;}
	.st1{opacity:9.000000e-02;fill:#AAAAAA;enable-background:new    ;}
	.st2{opacity:8.000000e-02;fill:#AAAAAA;enable-background:new    ;}
	.st3{opacity:7.000000e-02;fill:#AAAAAA;enable-background:new    ;}
	.st4{opacity:6.000000e-02;fill:#AAAAAA;enable-background:new    ;}
	.st5{opacity:5.000000e-02;fill:#AAAAAA;enable-background:new    ;}
	.st6{opacity:4.000000e-02;fill:#AAAAAA;enable-background:new    ;}
</style>
<title>Risorsa 5</title>
<g id="Livello_2_1_">
	<g id="Livello_1-2">
		<rect class="st0" width="1440" height="818.9"/>
		<circle class="st0" cx="40.8" cy="55.9" r="13.5"/>
		<circle class="st1" cx="40.8" cy="97.1" r="12.5"/>
		<circle class="st1" cx="40.8" cy="138.2" r="11.6"/>
		<circle class="st2" cx="40.8" cy="179.4" r="10.6"/>
		<circle class="st2" cx="40.8" cy="220.6" r="9.7"/>
		<circle class="st3" cx="40.8" cy="261.8" r="8.7"/>
		<circle class="st4" cx="40.8" cy="303" r="7.8"/>
		<circle class="st4" cx="40.8" cy="344.1" r="6.8"/>
		<circle class="st5" cx="40.8" cy="385.3" r="5.9"/>
		<circle class="st5" cx="40.8" cy="426.5" r="4.9"/>
		<circle class="st6" cx="40.8" cy="467.7" r="4"/>
		<circle class="st0" cx="91.2" cy="55.9" r="13.5"/>
		<circle class="st1" cx="91.2" cy="97.1" r="12.5"/>
		<circle class="st1" cx="91.2" cy="138.2" r="11.6"/>
		<circle class="st2" cx="91.2" cy="179.4" r="10.6"/>
		<circle class="st2" cx="91.2" cy="220.6" r="9.7"/>
		<circle class="st3" cx="91.2" cy="261.8" r="8.7"/>
		<circle class="st4" cx="91.2" cy="303" r="7.8"/>
		<circle class="st4" cx="91.2" cy="344.1" r="6.8"/>
		<circle class="st5" cx="91.2" cy="385.3" r="5.9"/>
		<circle class="st5" cx="91.2" cy="426.5" r="4.9"/>
		<circle class="st6" cx="91.2" cy="467.7" r="4"/>
		<circle class="st0" cx="141.5" cy="55.9" r="13.5"/>
		<circle class="st1" cx="141.5" cy="97.1" r="12.5"/>
		<circle class="st1" cx="141.5" cy="138.2" r="11.6"/>
		<circle class="st2" cx="141.5" cy="179.4" r="10.6"/>
		<circle class="st2" cx="141.5" cy="220.6" r="9.7"/>
		<circle class="st3" cx="141.5" cy="261.8" r="8.7"/>
		<circle class="st4" cx="141.5" cy="303" r="7.8"/>
		<circle class="st4" cx="141.5" cy="344.1" r="6.8"/>
		<circle class="st5" cx="141.5" cy="385.3" r="5.9"/>
		<circle class="st5" cx="141.5" cy="426.5" r="4.9"/>
		<circle class="st6" cx="141.5" cy="467.7" r="4"/>
		<circle class="st0" cx="191.8" cy="55.9" r="13.5"/>
		<circle class="st1" cx="191.8" cy="97.1" r="12.5"/>
		<circle class="st1" cx="191.8" cy="138.2" r="11.6"/>
		<circle class="st2" cx="191.8" cy="179.4" r="10.6"/>
		<circle class="st2" cx="191.8" cy="220.6" r="9.7"/>
		<circle class="st3" cx="191.8" cy="261.8" r="8.7"/>
		<circle class="st4" cx="191.8" cy="303" r="7.8"/>
		<circle class="st4" cx="191.8" cy="344.1" r="6.8"/>
		<circle class="st5" cx="191.8" cy="385.3" r="5.9"/>
		<circle class="st5" cx="191.8" cy="426.5" r="4.9"/>
		<circle class="st6" cx="191.8" cy="467.7" r="4"/>
		<circle class="st0" cx="242.1" cy="55.9" r="13.5"/>
		<circle class="st1" cx="242.1" cy="97.1" r="12.5"/>
		<circle class="st1" cx="242.1" cy="138.2" r="11.6"/>
		<circle class="st2" cx="242.1" cy="179.4" r="10.6"/>
		<circle class="st2" cx="242.1" cy="220.6" r="9.7"/>
		<circle class="st3" cx="242.1" cy="261.8" r="8.7"/>
		<circle class="st4" cx="242.1" cy="303" r="7.8"/>
		<circle class="st4" cx="242.1" cy="344.1" r="6.8"/>
		<circle class="st5" cx="242.1" cy="385.3" r="5.9"/>
		<circle class="st5" cx="242.1" cy="426.5" r="4.9"/>
		<circle class="st6" cx="242.1" cy="467.7" r="4"/>
		<circle class="st0" cx="292.4" cy="55.9" r="13.5"/>
		<circle class="st1" cx="292.4" cy="97.1" r="12.5"/>
		<circle class="st1" cx="292.4" cy="138.2" r="11.6"/>
		<circle class="st2" cx="292.4" cy="179.4" r="10.6"/>
		<circle class="st2" cx="292.4" cy="220.6" r="9.7"/>
		<circle class="st3" cx="292.4" cy="261.8" r="8.7"/>
		<circle class="st4" cx="292.4" cy="303" r="7.8"/>
		<circle class="st4" cx="292.4" cy="344.1" r="6.8"/>
		<circle class="st5" cx="292.4" cy="385.3" r="5.9"/>
		<circle class="st5" cx="292.4" cy="426.5" r="4.9"/>
		<circle class="st6" cx="292.4" cy="467.7" r="4"/>
		<circle class="st0" cx="342.7" cy="55.9" r="13.5"/>
		<circle class="st1" cx="342.7" cy="97.1" r="12.5"/>
		<circle class="st1" cx="342.7" cy="138.2" r="11.6"/>
		<circle class="st2" cx="342.7" cy="179.4" r="10.6"/>
		<circle class="st2" cx="342.7" cy="220.6" r="9.7"/>
		<circle class="st3" cx="342.7" cy="261.8" r="8.7"/>
		<circle class="st4" cx="342.7" cy="303" r="7.8"/>
		<circle class="st4" cx="342.7" cy="344.1" r="6.8"/>
		<circle class="st5" cx="342.7" cy="385.3" r="5.9"/>
		<circle class="st5" cx="342.7" cy="426.5" r="4.9"/>
		<circle class="st6" cx="342.7" cy="467.7" r="4"/>
		<circle class="st0" cx="393" cy="55.9" r="13.5"/>
		<circle class="st1" cx="393" cy="97.1" r="12.5"/>
		<circle class="st1" cx="393" cy="138.2" r="11.6"/>
		<circle class="st2" cx="393" cy="179.4" r="10.6"/>
		<circle class="st2" cx="393" cy="220.6" r="9.7"/>
		<circle class="st3" cx="393" cy="261.8" r="8.7"/>
		<circle class="st4" cx="393" cy="303" r="7.8"/>
		<circle class="st4" cx="393" cy="344.1" r="6.8"/>
		<circle class="st5" cx="393" cy="385.3" r="5.9"/>
		<circle class="st5" cx="393" cy="426.5" r="4.9"/>
		<circle class="st6" cx="393" cy="467.7" r="4"/>
		<circle class="st0" cx="443.3" cy="55.9" r="13.5"/>
		<circle class="st1" cx="443.3" cy="97.1" r="12.5"/>
		<circle class="st1" cx="443.3" cy="138.2" r="11.6"/>
		<circle class="st2" cx="443.3" cy="179.4" r="10.6"/>
		<circle class="st2" cx="443.3" cy="220.6" r="9.7"/>
		<circle class="st3" cx="443.3" cy="261.8" r="8.7"/>
		<circle class="st4" cx="443.3" cy="303" r="7.8"/>
		<circle class="st4" cx="443.3" cy="344.1" r="6.8"/>
		<circle class="st5" cx="443.3" cy="385.3" r="5.9"/>
		<circle class="st5" cx="443.3" cy="426.5" r="4.9"/>
		<circle class="st6" cx="443.3" cy="467.7" r="4"/>
		<circle class="st0" cx="493.6" cy="55.9" r="13.5"/>
		<circle class="st1" cx="493.6" cy="97.1" r="12.5"/>
		<circle class="st1" cx="493.6" cy="138.2" r="11.6"/>
		<circle class="st2" cx="493.6" cy="179.4" r="10.6"/>
		<circle class="st2" cx="493.6" cy="220.6" r="9.7"/>
		<circle class="st3" cx="493.6" cy="261.8" r="8.7"/>
		<circle class="st4" cx="493.6" cy="303" r="7.8"/>
		<circle class="st4" cx="493.6" cy="344.1" r="6.8"/>
		<circle class="st5" cx="493.6" cy="385.3" r="5.9"/>
		<circle class="st5" cx="493.6" cy="426.5" r="4.9"/>
		<circle class="st6" cx="493.6" cy="467.7" r="4"/>
		<circle class="st0" cx="543.9" cy="55.9" r="13.5"/>
		<circle class="st1" cx="543.9" cy="97.1" r="12.5"/>
		<circle class="st1" cx="543.9" cy="138.2" r="11.6"/>
		<circle class="st2" cx="543.9" cy="179.4" r="10.6"/>
		<circle class="st2" cx="543.9" cy="220.6" r="9.7"/>
		<circle class="st3" cx="543.9" cy="261.8" r="8.7"/>
		<circle class="st4" cx="543.9" cy="303" r="7.8"/>
		<circle class="st4" cx="543.9" cy="344.1" r="6.8"/>
		<circle class="st5" cx="543.9" cy="385.3" r="5.9"/>
		<circle class="st5" cx="543.9" cy="426.5" r="4.9"/>
		<circle class="st6" cx="543.9" cy="467.7" r="4"/>
		<circle class="st0" cx="594.2" cy="55.9" r="13.5"/>
		<circle class="st1" cx="594.2" cy="97.1" r="12.5"/>
		<circle class="st1" cx="594.2" cy="138.2" r="11.6"/>
		<circle class="st2" cx="594.2" cy="179.4" r="10.6"/>
		<circle class="st2" cx="594.2" cy="220.6" r="9.7"/>
		<circle class="st3" cx="594.2" cy="261.8" r="8.7"/>
		<circle class="st4" cx="594.2" cy="303" r="7.8"/>
		<circle class="st4" cx="594.2" cy="344.1" r="6.8"/>
		<circle class="st5" cx="594.2" cy="385.3" r="5.9"/>
		<circle class="st5" cx="594.2" cy="426.5" r="4.9"/>
		<circle class="st6" cx="594.2" cy="467.7" r="4"/>
		<circle class="st0" cx="644.5" cy="55.9" r="13.5"/>
		<circle class="st1" cx="644.5" cy="97.1" r="12.5"/>
		<circle class="st1" cx="644.5" cy="138.2" r="11.6"/>
		<circle class="st2" cx="644.5" cy="179.4" r="10.6"/>
		<circle class="st2" cx="644.5" cy="220.6" r="9.7"/>
		<circle class="st3" cx="644.5" cy="261.8" r="8.7"/>
		<circle class="st4" cx="644.5" cy="303" r="7.8"/>
		<circle class="st4" cx="644.5" cy="344.1" r="6.8"/>
		<circle class="st5" cx="644.5" cy="385.3" r="5.9"/>
		<circle class="st5" cx="644.5" cy="426.5" r="4.9"/>
		<circle class="st6" cx="644.5" cy="467.7" r="4"/>
		<circle class="st0" cx="694.8" cy="55.9" r="13.5"/>
		<circle class="st1" cx="694.8" cy="97.1" r="12.5"/>
		<circle class="st1" cx="694.8" cy="138.2" r="11.6"/>
		<circle class="st2" cx="694.8" cy="179.4" r="10.6"/>
		<circle class="st2" cx="694.8" cy="220.6" r="9.7"/>
		<circle class="st3" cx="694.8" cy="261.8" r="8.7"/>
		<circle class="st4" cx="694.8" cy="303" r="7.8"/>
		<circle class="st4" cx="694.8" cy="344.1" r="6.8"/>
		<circle class="st5" cx="694.8" cy="385.3" r="5.9"/>
		<circle class="st5" cx="694.8" cy="426.5" r="4.9"/>
		<circle class="st6" cx="694.8" cy="467.7" r="4"/>
		<circle class="st0" cx="745.2" cy="55.9" r="13.5"/>
		<circle class="st1" cx="745.2" cy="97.1" r="12.5"/>
		<circle class="st1" cx="745.2" cy="138.2" r="11.6"/>
		<circle class="st2" cx="745.2" cy="179.4" r="10.6"/>
		<circle class="st2" cx="745.2" cy="220.6" r="9.7"/>
		<circle class="st3" cx="745.2" cy="261.8" r="8.7"/>
		<circle class="st4" cx="745.2" cy="303" r="7.8"/>
		<circle class="st4" cx="745.2" cy="344.1" r="6.8"/>
		<circle class="st5" cx="745.2" cy="385.3" r="5.9"/>
		<circle class="st5" cx="745.2" cy="426.5" r="4.9"/>
		<circle class="st6" cx="745.2" cy="467.7" r="4"/>
		<circle class="st0" cx="795.5" cy="55.9" r="13.5"/>
		<circle class="st1" cx="795.5" cy="97.1" r="12.5"/>
		<circle class="st1" cx="795.5" cy="138.2" r="11.6"/>
		<circle class="st2" cx="795.5" cy="179.4" r="10.6"/>
		<circle class="st2" cx="795.5" cy="220.6" r="9.7"/>
		<circle class="st3" cx="795.5" cy="261.8" r="8.7"/>
		<circle class="st4" cx="795.5" cy="303" r="7.8"/>
		<circle class="st4" cx="795.5" cy="344.1" r="6.8"/>
		<circle class="st5" cx="795.5" cy="385.3" r="5.9"/>
		<circle class="st5" cx="795.5" cy="426.5" r="4.9"/>
		<circle class="st6" cx="795.5" cy="467.7" r="4"/>
		<circle class="st0" cx="845.8" cy="55.9" r="13.5"/>
		<circle class="st1" cx="845.8" cy="97.1" r="12.5"/>
		<circle class="st1" cx="845.8" cy="138.2" r="11.6"/>
		<circle class="st2" cx="845.8" cy="179.4" r="10.6"/>
		<circle class="st2" cx="845.8" cy="220.6" r="9.7"/>
		<circle class="st3" cx="845.8" cy="261.8" r="8.7"/>
		<circle class="st4" cx="845.8" cy="303" r="7.8"/>
		<circle class="st4" cx="845.8" cy="344.1" r="6.8"/>
		<circle class="st5" cx="845.8" cy="385.3" r="5.9"/>
		<circle class="st5" cx="845.8" cy="426.5" r="4.9"/>
		<circle class="st6" cx="845.8" cy="467.7" r="4"/>
		<circle class="st0" cx="896.1" cy="55.9" r="13.5"/>
		<circle class="st1" cx="896.1" cy="97.1" r="12.5"/>
		<circle class="st1" cx="896.1" cy="138.2" r="11.6"/>
		<circle class="st2" cx="896.1" cy="179.4" r="10.6"/>
		<circle class="st2" cx="896.1" cy="220.6" r="9.7"/>
		<circle class="st3" cx="896.1" cy="261.8" r="8.7"/>
		<circle class="st4" cx="896.1" cy="303" r="7.8"/>
		<circle class="st4" cx="896.1" cy="344.1" r="6.8"/>
		<circle class="st5" cx="896.1" cy="385.3" r="5.9"/>
		<circle class="st5" cx="896.1" cy="426.5" r="4.9"/>
		<circle class="st6" cx="896.1" cy="467.7" r="4"/>
		<circle class="st0" cx="946.4" cy="55.9" r="13.5"/>
		<circle class="st1" cx="946.4" cy="97.1" r="12.5"/>
		<circle class="st1" cx="946.4" cy="138.2" r="11.6"/>
		<circle class="st2" cx="946.4" cy="179.4" r="10.6"/>
		<circle class="st2" cx="946.4" cy="220.6" r="9.7"/>
		<circle class="st3" cx="946.4" cy="261.8" r="8.7"/>
		<circle class="st4" cx="946.4" cy="303" r="7.8"/>
		<circle class="st4" cx="946.4" cy="344.1" r="6.8"/>
		<circle class="st5" cx="946.4" cy="385.3" r="5.9"/>
		<circle class="st5" cx="946.4" cy="426.5" r="4.9"/>
		<circle class="st6" cx="946.4" cy="467.7" r="4"/>
		<circle class="st0" cx="996.7" cy="55.9" r="13.5"/>
		<circle class="st1" cx="996.7" cy="97.1" r="12.5"/>
		<circle class="st1" cx="996.7" cy="138.2" r="11.6"/>
		<circle class="st2" cx="996.7" cy="179.4" r="10.6"/>
		<circle class="st2" cx="996.7" cy="220.6" r="9.7"/>
		<circle class="st3" cx="996.7" cy="261.8" r="8.7"/>
		<circle class="st4" cx="996.7" cy="303" r="7.8"/>
		<circle class="st4" cx="996.7" cy="344.1" r="6.8"/>
		<circle class="st5" cx="996.7" cy="385.3" r="5.9"/>
		<circle class="st5" cx="996.7" cy="426.5" r="4.9"/>
		<circle class="st6" cx="996.7" cy="467.7" r="4"/>
		<circle class="st0" cx="1047" cy="55.9" r="13.5"/>
		<circle class="st1" cx="1047" cy="97.1" r="12.5"/>
		<circle class="st1" cx="1047" cy="138.2" r="11.6"/>
		<circle class="st2" cx="1047" cy="179.4" r="10.6"/>
		<circle class="st2" cx="1047" cy="220.6" r="9.7"/>
		<circle class="st3" cx="1047" cy="261.8" r="8.7"/>
		<circle class="st4" cx="1047" cy="303" r="7.8"/>
		<circle class="st4" cx="1047" cy="344.1" r="6.8"/>
		<circle class="st5" cx="1047" cy="385.3" r="5.9"/>
		<circle class="st5" cx="1047" cy="426.5" r="4.9"/>
		<circle class="st6" cx="1047" cy="467.7" r="4"/>
		<circle class="st0" cx="1097.3" cy="55.9" r="13.5"/>
		<circle class="st1" cx="1097.3" cy="97.1" r="12.5"/>
		<circle class="st1" cx="1097.3" cy="138.2" r="11.6"/>
		<circle class="st2" cx="1097.3" cy="179.4" r="10.6"/>
		<circle class="st2" cx="1097.3" cy="220.6" r="9.7"/>
		<circle class="st3" cx="1097.3" cy="261.8" r="8.7"/>
		<circle class="st4" cx="1097.3" cy="303" r="7.8"/>
		<circle class="st4" cx="1097.3" cy="344.1" r="6.8"/>
		<circle class="st5" cx="1097.3" cy="385.3" r="5.9"/>
		<circle class="st5" cx="1097.3" cy="426.5" r="4.9"/>
		<circle class="st6" cx="1097.3" cy="467.7" r="4"/>
		<circle class="st0" cx="1147.6" cy="55.9" r="13.5"/>
		<circle class="st1" cx="1147.6" cy="97.1" r="12.5"/>
		<circle class="st1" cx="1147.6" cy="138.2" r="11.6"/>
		<circle class="st2" cx="1147.6" cy="179.4" r="10.6"/>
		<circle class="st2" cx="1147.6" cy="220.6" r="9.7"/>
		<circle class="st3" cx="1147.6" cy="261.8" r="8.7"/>
		<circle class="st4" cx="1147.6" cy="303" r="7.8"/>
		<circle class="st4" cx="1147.6" cy="344.1" r="6.8"/>
		<circle class="st5" cx="1147.6" cy="385.3" r="5.9"/>
		<circle class="st5" cx="1147.6" cy="426.5" r="4.9"/>
		<circle class="st6" cx="1147.6" cy="467.7" r="4"/>
		<circle class="st0" cx="1197.9" cy="55.9" r="13.5"/>
		<circle class="st1" cx="1197.9" cy="97.1" r="12.5"/>
		<circle class="st1" cx="1197.9" cy="138.2" r="11.6"/>
		<circle class="st2" cx="1197.9" cy="179.4" r="10.6"/>
		<circle class="st2" cx="1197.9" cy="220.6" r="9.7"/>
		<circle class="st3" cx="1197.9" cy="261.8" r="8.7"/>
		<circle class="st4" cx="1197.9" cy="303" r="7.8"/>
		<circle class="st4" cx="1197.9" cy="344.1" r="6.8"/>
		<circle class="st5" cx="1197.9" cy="385.3" r="5.9"/>
		<circle class="st5" cx="1197.9" cy="426.5" r="4.9"/>
		<circle class="st6" cx="1197.9" cy="467.7" r="4"/>
		<circle class="st0" cx="1248.2" cy="55.9" r="13.5"/>
		<circle class="st1" cx="1248.2" cy="97.1" r="12.5"/>
		<circle class="st1" cx="1248.2" cy="138.2" r="11.6"/>
		<circle class="st2" cx="1248.2" cy="179.4" r="10.6"/>
		<circle class="st2" cx="1248.2" cy="220.6" r="9.7"/>
		<circle class="st3" cx="1248.2" cy="261.8" r="8.7"/>
		<circle class="st4" cx="1248.2" cy="303" r="7.8"/>
		<circle class="st4" cx="1248.2" cy="344.1" r="6.8"/>
		<circle class="st5" cx="1248.2" cy="385.3" r="5.9"/>
		<circle class="st5" cx="1248.2" cy="426.5" r="4.9"/>
		<circle class="st6" cx="1248.2" cy="467.7" r="4"/>
		<circle class="st0" cx="1298.5" cy="55.9" r="13.5"/>
		<circle class="st1" cx="1298.5" cy="97.1" r="12.5"/>
		<circle class="st1" cx="1298.5" cy="138.2" r="11.6"/>
		<circle class="st2" cx="1298.5" cy="179.4" r="10.6"/>
		<circle class="st2" cx="1298.5" cy="220.6" r="9.7"/>
		<circle class="st3" cx="1298.5" cy="261.8" r="8.7"/>
		<circle class="st4" cx="1298.5" cy="303" r="7.8"/>
		<circle class="st4" cx="1298.5" cy="344.1" r="6.8"/>
		<circle class="st5" cx="1298.5" cy="385.3" r="5.9"/>
		<circle class="st5" cx="1298.5" cy="426.5" r="4.9"/>
		<circle class="st6" cx="1298.5" cy="467.7" r="4"/>
		<circle class="st0" cx="1348.8" cy="55.9" r="13.5"/>
		<circle class="st1" cx="1348.8" cy="97.1" r="12.5"/>
		<circle class="st1" cx="1348.8" cy="138.2" r="11.6"/>
		<circle class="st2" cx="1348.8" cy="179.4" r="10.6"/>
		<circle class="st2" cx="1348.8" cy="220.6" r="9.7"/>
		<circle class="st3" cx="1348.8" cy="261.8" r="8.7"/>
		<circle class="st4" cx="1348.8" cy="303" r="7.8"/>
		<circle class="st4" cx="1348.8" cy="344.1" r="6.8"/>
		<circle class="st5" cx="1348.8" cy="385.3" r="5.9"/>
		<circle class="st5" cx="1348.8" cy="426.5" r="4.9"/>
		<circle class="st6" cx="1348.8" cy="467.7" r="4"/>
		<circle class="st0" cx="1399.2" cy="55.9" r="13.5"/>
		<circle class="st1" cx="1399.2" cy="97.1" r="12.5"/>
		<circle class="st1" cx="1399.2" cy="138.2" r="11.6"/>
		<circle class="st2" cx="1399.2" cy="179.4" r="10.6"/>
		<circle class="st2" cx="1399.2" cy="220.6" r="9.7"/>
		<circle class="st3" cx="1399.2" cy="261.8" r="8.7"/>
		<circle class="st4" cx="1399.2" cy="303" r="7.8"/>
		<circle class="st4" cx="1399.2" cy="344.1" r="6.8"/>
		<circle class="st5" cx="1399.2" cy="385.3" r="5.9"/>
		<circle class="st5" cx="1399.2" cy="426.5" r="4.9"/>
		<circle class="st6" cx="1399.2" cy="467.7" r="4"/>
	</g>
</g>
</svg>
