<svg xmlns="http://www.w3.org/2000/svg" version="1.1" xmlns:xlink="http://www.w3.org/1999/xlink" xmlns:svgjs="http://svgjs.com/svgjs" width="1440" height="250" preserveAspectRatio="none" viewBox="0 0 1440 250"><g mask="url(&quot;#SvgjsMask1006&quot;)" fill="none"><path d="M47 250L297 0L486 0L236 250z" fill="url(#SvgjsLinearGradient1007)"></path><path d="M255.60000000000002 250L505.6 0L769.6 0L519.6 250z" fill="url(#SvgjsLinearGradient1007)"></path><path d="M476.20000000000005 250L726.2 0L912.2 0L662.2 250z" fill="url(#SvgjsLinearGradient1007)"></path><path d="M741.8000000000001 250L991.8000000000001 0L1270.8000000000002 0L1020.8000000000001 250z" fill="url(#SvgjsLinearGradient1007)"></path><path d="M1423 250L1173 0L847.5 0L1097.5 250z" fill="url(#SvgjsLinearGradient1008)"></path><path d="M1187.4 250L937.4000000000001 0L835.4000000000001 0L1085.4 250z" fill="url(#SvgjsLinearGradient1008)"></path><path d="M952.8 250L702.8 0L353.29999999999995 0L603.3 250z" fill="url(#SvgjsLinearGradient1008)"></path><path d="M709.1999999999999 250L459.19999999999993 0L379.69999999999993 0L629.6999999999999 250z" fill="url(#SvgjsLinearGradient1008)"></path><path d="M1261.6015386519766 250L1440 71.60153865197663L1440 250z" fill="url(#SvgjsLinearGradient1007)"></path><path d="M0 250L178.39846134802337 250L 0 71.60153865197663z" fill="url(#SvgjsLinearGradient1008)"></path></g><defs><mask id="SvgjsMask1006"><rect width="1440" height="250" fill="#ffffff"></rect></mask><linearGradient x1="0%" y1="100%" x2="100%" y2="0%" id="SvgjsLinearGradient1007"><stop stop-color="rgba(55, 55, 55, 1)" offset="0"></stop><stop stop-opacity="0" stop-color="rgba(55, 55, 55, 1)" offset="0.66"></stop></linearGradient><linearGradient x1="100%" y1="100%" x2="0%" y2="0%" id="SvgjsLinearGradient1008"><stop stop-color="rgba(55, 55, 55, 1)" offset="0"></stop><stop stop-opacity="0" stop-color="rgba(55, 55, 55, 1)" offset="0.66"></stop></linearGradient></defs></svg>