<svg xmlns="http://www.w3.org/2000/svg" version="1.1" xmlns:xlink="http://www.w3.org/1999/xlink" xmlns:svgjs="http://svgjs.com/svgjs" width="1440" height="560" preserveAspectRatio="none" viewBox="0 0 1440 560"><g mask="url(&quot;#SvgjsMask1006&quot;)" fill="none"><rect width="1440" height="560" x="0" y="0" fill="rgba(170, 170, 170, 0.1)"></rect><path d="M1440 0L1294.29 0L1440 179.62z" fill="rgba(255, 255, 255, .1)"></path><path d="M1294.29 0L1440 179.62L1440 213.45L1252.21 0z" fill="rgba(255, 255, 255, .075)"></path><path d="M1252.21 0L1440 213.45L1440 423.91999999999996L1109.22 0z" fill="rgba(255, 255, 255, .05)"></path><path d="M1109.22 0L1440 423.91999999999996L1440 520.13L651.83 0z" fill="rgba(255, 255, 255, .025)"></path><path d="M0 560L354.56 560L0 497.11z" fill="rgba(0, 0, 0, .1)"></path><path d="M0 497.11L354.56 560L753.24 560L0 495.74z" fill="rgba(0, 0, 0, .075)"></path><path d="M0 495.74L753.24 560L771.52 560L0 349.8z" fill="rgba(0, 0, 0, .05)"></path><path d="M0 349.8L771.52 560L1142.2 560L0 247.32z" fill="rgba(0, 0, 0, .025)"></path></g><defs><mask id="SvgjsMask1006"><rect width="1440" height="560" fill="#ffffff"></rect></mask></defs></svg>