<svg xmlns="http://www.w3.org/2000/svg" version="1.1" xmlns:xlink="http://www.w3.org/1999/xlink" xmlns:svgjs="http://svgjs.com/svgjs" width="1440" height="560" preserveAspectRatio="none" viewBox="0 0 1440 560"><g mask="url(&quot;#SvgjsMask1002&quot;)" fill="none"><rect width="1440" height="560" x="0" y="0" fill="rgba(38, 39, 40, 1)"></rect><path d="M0,358.967C64.705,344.031,121.625,311.702,174.502,271.53C223.9,234.001,268.737,190.924,295.101,134.768C321.646,78.227,326.769,15.832,323.837,-46.561C320.654,-114.305,321.396,-188.758,277.472,-240.431C233.458,-292.21,155.23,-289.773,93.303,-317.761C18.648,-351.501,-42.417,-430.74,-123.854,-421.807C-205.791,-412.819,-265.102,-338.562,-315.024,-272.97C-362.797,-210.202,-397.24,-136.447,-401.01,-57.657C-404.6,17.38,-362.773,83.215,-335.414,153.179C-306.258,227.738,-303.53,324.257,-235.293,366.123C-167.028,408.006,-78.037,376.98,0,358.967" fill="#1e1f20"></path><path d="M1440 1081.3220000000001C1539.927 1099.19 1646.682 1069.242 1730.036 1011.3050000000001 1812.088 954.273 1870.904 864.245 1892.632 766.71 1912.551 677.298 1873.9 588.397 1843.5 501.985 1818.161 429.96000000000004 1772.416 371.956 1731.155 307.71299999999997 1682.101 231.336 1660.338 127.86399999999998 1578.284 89.04599999999999 1494.67 49.49000000000001 1397.604 88.411 1307.004 107.05599999999998 1208.538 127.32 1100.824 133.827 1027.34 202.428 951.155 273.551 896.595 379.044 904.32 482.981 911.784 583.408 1008.7470000000001 648.096 1066.589 730.531 1112.7269999999999 796.2860000000001 1151.2060000000001 863.275 1209.751 918.274 1279.711 983.996 1345.511 1064.4270000000001 1440 1081.3220000000001" fill="#2e2f30"></path></g><defs><mask id="SvgjsMask1002"><rect width="1440" height="560" fill="#ffffff"></rect></mask></defs></svg>